<svg width="86" height="83" viewBox="0 0 86 83" fill="none" xmlns="http://www.w3.org/2000/svg">
<rect width="86" height="83" rx="23" fill="white"/>
<mask id="mask0_26_261" style="mask-type:luminance" maskUnits="userSpaceOnUse" x="19" y="20" width="39" height="49">
<path d="M19 20.887H57.7416V68.7292H19V20.887Z" fill="white"/>
</mask>
<g mask="url(#mask0_26_261)">
<path d="M54.225 68.553H22.2836C20.4924 68.553 19 67.0593 19 65.2668V24.1865C19 22.394 20.4924 20.9003 22.2836 20.9003H25.4185C26.0161 20.9003 26.5385 21.4241 26.5385 22.0216C26.5385 22.6191 26.0161 23.1416 25.4185 23.1416H22.2836C21.6874 23.1416 21.2387 23.589 21.2387 24.1865V65.2668C21.2387 65.8643 21.6874 66.3117 22.2836 66.3117H54.225C54.8225 66.3117 55.27 65.8643 55.27 65.2668V51.0754C55.27 50.4779 55.7925 49.9554 56.39 49.9554C56.9862 49.9554 57.5087 50.4779 57.5087 51.0754V65.2668C57.5087 67.1343 56.0912 68.553 54.225 68.553Z" fill="#4C84CF"/>
</g>
<path d="M56.39 28.2951C55.7925 28.2951 55.27 27.7726 55.27 27.1738V24.1863C55.27 23.5888 54.8225 23.1413 54.225 23.1413H51.0914C50.4939 23.1413 49.9714 22.6188 49.9714 22.0213C49.9714 21.4238 50.4939 20.9 51.0914 20.9H54.225C56.0162 20.9 57.5087 22.3938 57.5087 24.1863V27.1738C57.5087 27.7726 57.0612 28.2951 56.39 28.2951Z" fill="#4C84CF"/>
<path d="M45.5679 27.6976H30.9409C29.8222 27.6976 28.851 26.8013 28.851 25.6063V20.0788C28.851 18.9588 29.7472 17.9875 30.9409 17.9875H34.2995C34.822 16.27 36.3895 15 38.2544 15C40.1206 15 41.7618 16.27 42.2105 17.9875H45.4942C46.6128 17.9875 47.5828 18.8838 47.5828 20.0788V25.6063C47.6578 26.8013 46.7629 27.6976 45.5679 27.6976ZM31.1646 25.4563H45.4192V20.2288H41.3143C40.7181 20.2288 40.1956 19.705 40.1956 19.1075C40.1956 18.0625 39.3744 17.24 38.3294 17.24C37.2844 17.24 36.4632 18.0625 36.4632 19.1075C36.4632 19.705 35.9407 20.2288 35.3445 20.2288H31.1646V25.4563Z" fill="#4C84CF"/>
<path d="M33.702 50.4777H26.1648V42.934H33.702V50.4777ZM28.4035 48.2378H31.4634V45.1752H28.4035V48.2378Z" fill="#4C84CF"/>
<path d="M42.8817 47.789H38.1056C37.5081 47.789 36.9856 47.2665 36.9856 46.669C36.9856 46.0715 37.5081 45.5477 38.1056 45.5477H42.8817C43.4792 45.5477 44.0016 46.0715 44.0016 46.669C44.0016 47.2665 43.4792 47.789 42.8817 47.789Z" fill="#4C84CF"/>
<path d="M33.702 61.6064H26.1648V54.0626H33.702V61.6064ZM28.4035 59.3664H31.4634V56.3039H28.4035V59.3664Z" fill="#4C84CF"/>
<path d="M33.702 39.3488H26.1648V31.8051H33.702V39.3488ZM28.4035 37.1076H31.4634V34.0463H28.4035V37.1076Z" fill="#4C84CF"/>
<path d="M49.2253 34.4939H38.0307C37.4332 34.4939 36.912 33.9714 36.912 33.3739C36.912 32.7764 37.4332 32.2539 38.0307 32.2539H49.2253C49.8228 32.2539 50.344 32.7764 50.344 33.3739C50.344 33.9714 49.8965 34.4939 49.2253 34.4939Z" fill="#4C84CF"/>
<path d="M46.314 38.8264H38.1056C37.5081 38.8264 36.9856 38.3039 36.9856 37.7064C36.9856 37.1076 37.5081 36.5851 38.1056 36.5851H46.389C46.9865 36.5851 47.509 37.1076 47.509 37.7064C47.509 38.3039 46.9865 38.8264 46.314 38.8264Z" fill="#4C84CF"/>
<path d="M43.0304 59.889C42.8067 59.889 42.583 59.8139 42.4342 59.6652C42.0605 59.4402 41.8367 58.9177 41.9855 58.4702L43.3292 52.7926C43.3292 52.6439 43.4042 52.4939 43.4792 52.4202L57.2849 32.1788C57.6587 31.6563 58.3299 31.5063 58.8524 31.8801C59.3749 32.2538 59.5236 32.925 59.1512 33.4488L45.3441 53.6152L44.7479 56.2289L46.9866 54.7352L61.9123 32.8513L59.3749 31.1325C59.1512 30.9838 58.9274 30.6851 58.9274 30.3863C58.8524 30.0876 58.9274 29.7888 59.0761 29.5651L60.4936 27.3988C60.8673 26.875 61.5385 26.7263 62.061 27.1001L65.4947 29.4901C66.0172 29.8638 66.1659 30.535 65.7921 31.0588C65.4197 31.5813 64.7485 31.73 64.226 31.3576L61.6886 29.6388L61.5385 29.8638L64.0759 31.5813C64.2997 31.73 64.5234 32.0288 64.5234 32.3275C64.5984 32.6263 64.5234 32.925 64.3747 33.1501L48.7028 56.0789C48.6277 56.2289 48.554 56.304 48.404 56.3777L43.6279 59.7389C43.4792 59.8139 43.2542 59.889 43.0304 59.889Z" fill="#4C84CF"/>
</svg>
